<?xml version="1.0" standalone="no"?>
<!DOCTYPE svg PUBLIC "-//W3C//DTD SVG 20010904//EN"
 "http://www.w3.org/TR/2001/REC-SVG-20010904/DTD/svg10.dtd">
<svg version="1.0" xmlns="http://www.w3.org/2000/svg"
 width="169.000000pt" height="169.000000pt" viewBox="0 0 169.000000 169.000000"
 preserveAspectRatio="xMidYMid meet">
<metadata>
Created by potrace 1.11, written by Peter Selinger 2001-2013
</metadata>
<g transform="translate(0.000000,169.000000) scale(0.100000,-0.100000)"
fill="#000000" stroke="none">
<path d="M732 1669 c-205 -45 -307 -100 -447 -243 -72 -73 -99 -110 -135 -181
-50 -98 -62 -131 -80 -215 -6 -30 -16 -71 -21 -91 -12 -47 -12 -128 0 -182 5
-23 15 -69 22 -102 7 -33 16 -64 21 -70 4 -5 8 -18 8 -28 0 -41 95 -200 162
-272 143 -153 261 -219 480 -265 103 -22 158 -25 226 -10 26 6 70 15 97 21 28
6 59 14 70 19 11 4 43 17 71 28 51 20 141 73 184 109 70 57 92 81 89 92 -3 8
-11 5 -26 -9 -28 -26 -37 -26 -21 1 12 18 9 24 -18 47 -17 15 -39 44 -49 65
-15 33 -16 40 -4 48 13 8 6 13 -13 10 -17 -2 -19 49 -4 78 16 29 16 31 -3 31
-10 0 -26 -12 -36 -26 -9 -14 -19 -23 -22 -20 -3 3 0 13 8 22 11 14 10 18 -6
31 -11 7 -18 16 -17 19 2 3 1 8 -2 11 -3 4 -6 1 -6 -7 0 -10 -3 -10 -15 0 -9
7 -14 19 -11 27 3 7 -1 13 -9 13 -20 0 -49 56 -34 66 8 4 10 28 6 67 -4 50 -2
63 11 74 15 11 15 12 1 13 -25 0 -62 37 -55 55 3 9 0 15 -10 15 -11 0 -14 9
-12 33 2 17 8 31 14 30 6 -1 10 8 10 20 -1 13 4 21 12 19 8 -1 11 2 7 8 -10
16 15 41 35 35 13 -4 17 -1 16 12 -1 14 5 17 27 15 21 -3 36 6 67 39 l40 43
-25 26 c-14 14 -25 30 -25 35 0 4 9 -2 20 -15 14 -16 25 -20 37 -15 10 5 23 7
29 6 13 -2 26 31 28 74 5 77 7 86 16 80 6 -4 10 5 10 19 0 16 6 26 15 26 66 0
-102 141 -247 208 -26 12 -54 22 -61 22 -7 0 -17 4 -22 8 -6 5 -37 14 -70 21
-33 7 -76 17 -96 22 -54 13 -143 9 -237 -12z m125 -15 c-3 -3 -12 -4 -19 -1
-8 3 -5 6 6 6 11 1 17 -2 13 -5z m-88 -15 c-18 -11 -52 -11 -45 0 3 5 17 9 32
9 18 0 22 -3 13 -9z m270 -5 c10 -9 -45 -3 -59 6 -11 7 -5 8 20 4 19 -4 37 -8
39 -10z m-362 -10 c-3 -3 -12 -4 -19 -1 -8 3 -5 6 6 6 11 1 17 -2 13 -5z m433
-4 c0 -5 -6 -10 -14 -10 -8 0 -18 5 -21 10 -3 6 3 10 14 10 12 0 21 -4 21 -10z
m-503 -16 c-3 -3 -12 -4 -19 -1 -8 3 -5 6 6 6 11 1 17 -2 13 -5z m560 0 c-3
-3 -12 -4 -19 -1 -8 3 -5 6 6 6 11 1 17 -2 13 -5z m40 -20 c-3 -3 -12 -4 -19
-1 -8 3 -5 6 6 6 11 1 17 -2 13 -5z m-454 -386 c3 -211 10 -506 17 -657 13
-319 12 -321 -65 -321 -37 0 -47 4 -62 26 -17 27 -17 46 13 570 l6 101 -37 41
-36 41 4 153 c2 84 9 171 14 193 15 61 71 189 94 213 46 50 46 47 52 -360z
m504 366 c-3 -3 -12 -4 -19 -1 -8 3 -5 6 6 6 11 1 17 -2 13 -5z m30 -20 c-3
-3 -12 -4 -19 -1 -8 3 -5 6 6 6 11 1 17 -2 13 -5z m28 -14 c3 -5 1 -10 -4 -10
-6 0 -11 5 -11 10 0 6 2 10 4 10 3 0 8 -4 11 -10z m-883 -17 c-11 -10 -40 -33
-64 -52 -24 -19 -56 -51 -73 -71 -32 -41 -84 -81 -55 -44 28 36 148 154 158
154 5 0 15 7 22 15 7 8 17 15 23 15 5 0 1 -8 -11 -17z m930 -16 c7 -7 24 -21
38 -30 17 -12 20 -17 9 -17 -9 0 -30 14 -47 30 -18 17 -28 30 -23 30 5 0 16
-6 23 -13z m-280 -92 c45 -344 45 -350 -20 -407 l-38 -33 12 -240 c7 -132 13
-289 14 -350 2 -107 2 -110 -24 -132 -15 -13 -38 -23 -52 -23 -36 0 -74 42
-74 82 0 49 19 501 25 593 5 79 4 80 -23 96 -15 8 -36 32 -46 52 -19 34 -19
43 -8 164 13 133 20 192 28 231 4 22 8 23 102 20 l97 -3 7 -50z m-232 26 c0
-14 -5 -18 -20 -14 -19 5 -20 6 -3 19 23 17 23 17 23 -5z m257 -13 c-3 -8 -6
-5 -6 6 -1 11 2 17 5 13 3 -3 4 -12 1 -19z m337 6 c5 -14 4 -15 -9 -4 -17 14
-19 20 -6 20 5 0 12 -7 15 -16z m-837 -16 c-3 -8 -6 -5 -6 6 -1 11 2 17 5 13
3 -3 4 -12 1 -19z m190 16 c-3 -3 -12 -4 -19 -1 -8 3 -5 6 6 6 11 1 17 -2 13
-5z m327 -40 c4 -10 1 -14 -6 -12 -15 5 -23 28 -10 28 5 0 13 -7 16 -16z
m-274 -2 c0 -13 -12 -22 -22 -16 -10 6 -1 24 13 24 5 0 9 -4 9 -8z m-260 -22
c0 -10 -9 -24 -20 -30 -19 -10 -19 -10 -2 20 20 35 22 36 22 10z m553 -59 c-4
-4 -11 -10 -15 -15 -5 -5 -8 3 -8 19 0 24 2 26 15 15 9 -7 12 -16 8 -19z
m-913 10 c0 -5 -6 -14 -14 -20 -12 -10 -13 -8 -9 8 5 21 23 30 23 12z m300 -6
c-7 -8 -17 -15 -22 -15 -11 0 14 29 26 30 5 0 3 -7 -4 -15z m297 -37 c-2 -13
-4 -5 -4 17 -1 22 1 32 4 23 2 -10 2 -28 0 -40z m438 12 c10 -11 16 -20 13
-20 -3 0 -15 9 -28 20 -13 11 -19 20 -13 20 5 0 18 -9 28 -20z m-697 -142 l-2
-153 -6 140 c-5 131 -3 165 6 165 2 0 3 -69 2 -152z m636 123 c-2 -3 -12 3
-22 13 -16 17 -16 18 5 5 12 -7 20 -15 17 -18z m-721 4 c-3 -9 -8 -14 -10 -11
-3 3 -2 9 2 15 9 16 15 13 8 -4z m-293 -15 c0 -5 -5 -10 -11 -10 -5 0 -7 5 -4
10 3 6 8 10 11 10 2 0 4 -4 4 -10z m270 -9 c0 -5 -7 -12 -16 -15 -14 -5 -15
-4 -4 9 14 17 20 19 20 6z m80 5 c0 -2 -7 -7 -16 -10 -8 -3 -12 -2 -9 4 6 10
25 14 25 6z m-373 -38 c-3 -8 -6 -5 -6 6 -1 11 2 17 5 13 3 -3 4 -12 1 -19z
m1128 -28 c3 -5 1 -10 -4 -10 -6 0 -11 5 -11 10 0 6 2 10 4 10 3 0 8 -4 11
-10z m-832 -17 c-7 -3 -13 -12 -14 -21 0 -11 -2 -13 -6 -4 -6 15 17 46 26 36
3 -4 0 -9 -6 -11z m684 -70 c-2 -16 -4 -5 -4 22 0 28 2 40 4 28 2 -13 2 -35 0
-50z m-340 5 c-2 -13 -4 -5 -4 17 -1 22 1 32 4 23 2 -10 2 -28 0 -40z m-680
20 c-3 -8 -6 -5 -6 6 -1 11 2 17 5 13 3 -3 4 -12 1 -19z m-7 -47 c0 -6 -4 -13
-10 -16 -5 -3 -10 1 -10 9 0 9 5 16 10 16 6 0 10 -4 10 -9z m273 -31 c-3 -12
-8 -19 -11 -16 -5 6 5 36 12 36 2 0 2 -9 -1 -20z m-66 -22 c-3 -8 -6 -5 -6 6
-1 11 2 17 5 13 3 -3 4 -12 1 -19z m-227 -62 c0 -8 -6 -16 -14 -19 -10 -4 -12
0 -9 14 6 22 23 26 23 5z m797 -88 c-2 -18 -4 -4 -4 32 0 36 2 50 4 33 2 -18
2 -48 0 -65z m160 30 c-2 -13 -4 -3 -4 22 0 25 2 35 4 23 2 -13 2 -33 0 -45z
m-427 32 c0 -5 -4 -10 -10 -10 -5 0 -10 5 -10 10 0 6 5 10 10 10 6 0 10 -4 10
-10z m-273 -122 c-3 -8 -6 -5 -6 6 -1 11 2 17 5 13 3 -3 4 -12 1 -19z m440
-185 c-2 -37 -3 -9 -3 62 0 72 1 102 3 68 2 -34 2 -93 0 -130z m393 111 c0
-13 -4 -24 -10 -24 -5 0 -10 14 -10 31 0 17 4 28 10 24 6 -3 10 -17 10 -31z
m-1090 -5 c0 -18 -18 -9 -23 12 -4 16 -3 18 9 8 8 -6 14 -15 14 -20z m517 -11
c-3 -7 -5 -2 -5 12 0 14 2 19 5 13 2 -7 2 -19 0 -25z m-207 -106 c0 -3 -7 3
-15 14 -8 10 -14 26 -15 34 0 8 7 2 15 -14 8 -15 15 -31 15 -34z m667 -94 c-2
-29 -3 -6 -3 52 0 58 1 81 3 53 2 -29 2 -77 0 -105z m-957 101 c0 -5 -4 -9
-10 -9 -5 0 -10 7 -10 16 0 8 5 12 10 9 6 -3 10 -10 10 -16z m7 -61 c-3 -8 -6
-5 -6 6 -1 11 2 17 5 13 3 -3 4 -12 1 -19z m337 -30 c6 -4 7 -10 3 -15 -10 -9
-27 16 -26 37 1 13 1 13 6 0 3 -8 11 -18 17 -22z m413 -35 c-2 -16 -4 -5 -4
22 0 28 2 40 4 28 2 -13 2 -35 0 -50z m-710 -25 c-3 -8 -6 -5 -6 6 -1 11 2 17
5 13 3 -3 4 -12 1 -19z m293 -20 c0 -6 -6 -5 -15 2 -8 7 -15 14 -15 16 0 2 7
1 15 -2 8 -4 15 -11 15 -16z m835 -8 c-16 -16 -33 -30 -38 -30 -9 0 53 60 62
60 3 0 -8 -13 -24 -30z m-690 -58 c-12 -12 -23 21 -12 33 10 10 13 9 15 -7 2
-11 1 -23 -3 -26z m604 45 c-2 -1 -13 -9 -24 -17 -19 -14 -19 -14 -6 3 7 9 18
17 24 17 6 0 8 -1 6 -3z m-979 -53 c0 -3 -7 -1 -15 6 -8 7 -15 17 -15 22 0 5
7 3 15 -6 8 -8 15 -18 15 -22z m925 16 c-3 -5 -12 -10 -18 -10 -7 0 -6 4 3 10
19 12 23 12 15 0z m-35 -24 c0 -2 -9 -6 -20 -9 -11 -3 -20 -1 -20 4 0 5 9 9
20 9 11 0 20 -2 20 -4z m70 -10 c0 -2 -8 -10 -17 -17 -16 -13 -17 -12 -4 4 13
16 21 21 21 13z m-581 -59 c-1 -40 -2 -40 -9 -12 -11 44 -11 67 0 60 6 -3 9
-25 9 -48z m-203 -100 c25 -14 48 -37 37 -37 -20 0 -193 155 -193 173 0 6 31
-20 69 -57 37 -38 77 -73 87 -79z m411 121 c-3 -8 -6 -5 -6 6 -1 11 2 17 5 13
3 -3 4 -12 1 -19z m283 -18 c0 -5 -2 -10 -4 -10 -3 0 -8 5 -11 10 -3 6 -1 10
4 10 6 0 11 -4 11 -10z m-257 -37 c-7 -2 -21 -2 -30 0 -10 3 -4 5 12 5 17 0
24 -2 18 -5z m47 -3 c0 -5 -4 -10 -10 -10 -5 0 -10 5 -10 10 0 6 5 10 10 10 6
0 10 -4 10 -10z m527 -26 c-3 -3 -12 -4 -19 -1 -8 3 -5 6 6 6 11 1 17 -2 13
-5z m-39 -27 c-22 -21 -78 -59 -78 -52 0 8 27 35 35 35 4 0 13 7 21 15 9 8 20
15 25 15 6 0 4 -6 -3 -13z m-385 -14 c-7 -2 -21 -2 -30 0 -10 3 -4 5 12 5 17
0 24 -2 18 -5z m214 -89 c-3 -3 -12 -4 -19 -1 -8 3 -5 6 6 6 11 1 17 -2 13 -5z
m-594 -21 c-7 -2 -19 -2 -25 0 -7 3 -2 5 12 5 14 0 19 -2 13 -5z m554 1 c-3
-3 -12 -4 -19 -1 -8 3 -5 6 6 6 11 1 17 -2 13 -5z m-57 -14 c0 -5 -7 -10 -15
-10 -8 0 -15 5 -15 10 0 6 7 10 15 10 8 0 15 -4 15 -10z m-433 -6 c-3 -3 -12
-4 -19 -1 -8 3 -5 6 6 6 11 1 17 -2 13 -5z m93 -14 c11 -8 7 -9 -15 -4 -37 8
-45 14 -19 14 10 0 26 -5 34 -10z m225 0 c3 -5 -1 -10 -10 -10 -9 0 -13 5 -10
10 3 6 8 10 10 10 2 0 7 -4 10 -10z m45 6 c0 -2 -7 -7 -16 -10 -8 -3 -12 -2
-9 4 6 10 25 14 25 6z"/>
</g>
</svg>
